<?xml version="1.0" encoding="iso-8859-1"?>
<!-- Generator: Adobe Illustrator 19.0.0, SVG Export Plug-In . SVG Version: 6.00 Build 0)  -->
<svg version="1.1" id="Capa_1" xmlns="http://www.w3.org/2000/svg" x="0px" y="0px"
     viewBox="0 0 512 512" style="enable-background:new 0 0 512 512;" xml:space="preserve">
<rect x="47.13" y="31.07" style="fill:#EDF6FF;" width="417.73" height="353.47"/>
    <rect x="256" y="31.07" style="fill:#D6E9FF;" width="208.87" height="353.47"/>
    <path style="fill:#0065A3;" d="M464.867,399.533H47.134c-8.284,0-15-6.716-15-15V31.066c0-8.284,6.716-15,15-15h417.733
	c8.284,0,15,6.716,15,15v353.467C479.867,392.817,473.151,399.533,464.867,399.533z M62.134,369.533h387.733V46.066H62.134V369.533z
	"/>
    <path style="fill:#003E67;" d="M464.866,16.066H256v30h193.866v323.467H256v30h208.866c8.284,0,15-6.716,15-15V31.066
	C479.866,22.782,473.15,16.066,464.866,16.066z"/>
    <path style="fill:#FF6C6C;" d="M497,369.533H15c-8.284,0-15,6.716-15,15V400.6c0,52.567,42.767,95.334,95.334,95.334h321.333
	c52.567,0,95.333-42.767,95.333-95.334v-16.066C512,376.249,505.284,369.533,497,369.533z"/>
    <path style="fill:#FF9F00;" d="M148.157,295.267c-3.839,0-7.677-1.464-10.606-4.394c-5.858-5.857-5.858-15.354-0.001-21.213
	l68.161-68.165c5.857-5.857,15.355-5.859,21.213,0c5.858,5.857,5.858,15.354,0,21.213l-68.161,68.165
	C155.835,293.802,151.996,295.267,148.157,295.267z"/>
    <path style="fill:#D97F4A;" d="M263.154,273.935c3.979,0,7.793-1.58,10.607-4.393l2.854-2.854c0.727,0.107,1.457,0.178,2.19,0.178
	c3.839,0,7.678-1.465,10.606-4.393l45.441-45.443c3.488-3.488,4.883-8.265,4.217-12.797l2.855-2.855
	c5.857-5.857,5.857-15.356-0.001-21.213l-93.669-93.668c-2.813-2.813-6.629-4.394-10.607-4.394c-3.979,0-7.794,1.58-10.607,4.394
	l-2.855,2.855c-4.532-0.665-9.308,0.729-12.796,4.217l-45.441,45.443c-3.488,3.488-4.881,8.265-4.216,12.796l-2.855,2.855
	c-5.857,5.858-5.857,15.355,0.001,21.213l93.668,93.668C255.361,272.355,259.176,273.935,263.154,273.935z"/>
    <path style="fill:#F77E00;" d="M363.843,296.426h-96.396c-8.284,0-15,6.716-15,15s6.716,15,15,15h96.396c8.284,0,15-6.716,15-15
	S372.127,296.426,363.843,296.426z"/>
    <path style="fill:#FF3980;" d="M497,369.533H256v126.4h160.666c52.567,0,95.334-42.767,95.334-95.334v-16.066
	C512,376.249,505.284,369.533,497,369.533z"/>
    <path style="fill:#B34F03;" d="M341.925,180.163l-46.832-46.832l-89.378,89.378l46.833,46.833c2.813,2.814,6.628,4.393,10.606,4.393
	c3.979,0,7.793-1.58,10.607-4.393l2.854-2.854c0.727,0.107,1.457,0.178,2.19,0.178c3.839,0,7.678-1.465,10.606-4.393l45.441-45.443
	c3.488-3.488,4.883-8.265,4.217-12.797l2.855-2.855C347.783,195.519,347.783,186.02,341.925,180.163z"/>
    <g>
</g>
    <g>
</g>
    <g>
</g>
    <g>
</g>
    <g>
</g>
    <g>
</g>
    <g>
</g>
    <g>
</g>
    <g>
</g>
    <g>
</g>
    <g>
</g>
    <g>
</g>
    <g>
</g>
    <g>
</g>
    <g>
</g>
</svg>
